<svg xmlns="http://www.w3.org/2000/svg" viewBox="0 0 481.18 713.5"><defs><style>.cls-1{fill:none;stroke:#c8d900;stroke-miterlimit:10;}</style></defs><title>control</title><g id="Layer_2" data-name="Layer 2"><g id="Layer_1-2" data-name="Layer 1"><g id="Layer_2-2" data-name="Layer 2"><g id="Layer_1-2-2" data-name="Layer 1-2"><path class="cls-1" d="M60.71,153.5a65.75,65.75,0,0,1-24.9-4.5,49.87,49.87,0,0,1-19-13.5,61.21,61.21,0,0,1-12.1-22.3Q.51,99.9.51,82.3A106.82,106.82,0,0,1,4.71,51a64,64,0,0,1,12.1-23,51.39,51.39,0,0,1,19-14.1,62.13,62.13,0,0,1,24.9-4.8q18.8,0,31.2,8t19.8,24.2l-22.6,12a31.79,31.79,0,0,0-9.8-15.1q-6.8-5.7-18.6-5.7-14.8,0-23.5,10t-8.7,28v22q0,18.2,8.7,27.9t23.5,9.7q11.8,0,19.3-6.4a36.91,36.91,0,0,0,10.9-15.8l21.4,12.6q-7.6,15.6-20.2,24.3T60.71,153.5Z"/><path class="cls-1" d="M231.52,140.1l-11.2-35.6h-49.6l-11,35.6h-26.8L179.72.5h32.8l46.4,139.6ZM195.92,24.5h-1l-17.8,57.4h36.8Z"/><path class="cls-1" d="M268.52,141.1V1.5h89.8V24.9h-63.4V58.7h55.2V82.1h-55.2v59Z"/><path class="cls-1" d="M379.92,140.1V.5h92V23.9h-65.6V57.7h58V81.1h-58v35.6h65.6v23.4Z"/><path class="cls-1" d="M158.08,347V321.77h18.4V206.1h-18.4V180.88h63.4V206.1h-18.6V321.77h18.6V347Z"/><path class="cls-1" d="M288.48,261.8l-14.4-34.51h-.6V347h-25V180.88h29l42,85.2,14.4,34.51h.6V180.88h25V347h-29Z"/><path class="cls-1" d="M380.88,346.56v-25.7h99.8v25.7Z"/><path class="cls-1" d="M77.08,391.72V530H50.68V391.72H11.08V363.88h105.6v27.85Z"/><path class="cls-1" d="M138.28,530V363.88h92v27.85h-65.6V432h58V459.8h-58v42.36h65.6V530Z"/><path class="cls-1" d="M284.68,530h-26.4V363.88h63a40,40,0,0,1,17.2,3.57,35.19,35.19,0,0,1,12.9,10.35,49.8,49.8,0,0,1,8.2,16.3,72.61,72.61,0,0,1,2.9,21.18q0,17.14-6.5,29.51a37,37,0,0,1-19.5,17.61l28.6,67.6h-29.4l-26-64h-25Zm34-90.44q7.6,0,12-4.88t4.4-13.92V409.81q0-9-4.4-13.8t-12-4.76h-34v48.31Z"/><path class="cls-1" d="M380.68,529.55v-25.7h99.8v25.7Z"/><path class="cls-1" d="M62.28,627.8l-14.4-34.51h-.6V713h-25V546.88h29l42,85.2,14.4,34.51h.6V546.88h25V713h-29Z"/><path class="cls-1" d="M166.08,713V546.88h92v27.85h-65.6v40.22h58V642.8h-58v42.36h65.6V713Z"/><path class="cls-1" d="M340.88,574.72V713h-26.4V574.72h-39.6V546.88h105.6v27.85Z"/><path class="cls-1" d="M375.68,712.55v-25.7h99.8v25.7Z"/></g></g></g></g></svg>