<svg xmlns="http://www.w3.org/2000/svg" viewBox="0 0 202.09 185.09"><defs><style>.cls-1{fill:#0095ff;}</style></defs><title>Asset 2</title><g id="Layer_2" data-name="Layer 2"><g id="Layer_1-2" data-name="Layer 1"><path class="cls-1" d="M80.88,38.1A7.84,7.84,0,0,0,80,40.76H95.4A6.92,6.92,0,0,0,94.66,38,6.83,6.83,0,0,0,93,35.87a7.79,7.79,0,0,0-2.35-1.34A7.89,7.89,0,0,0,87.92,34a8.47,8.47,0,0,0-3,.5,7.45,7.45,0,0,0-4.08,3.55M95.21,97a10,10,0,0,0,.62-3.62v-.58a9.69,9.69,0,0,0-.62-3.53,8.28,8.28,0,0,0-1.73-2.76,8,8,0,0,0-2.59-1.8A8,8,0,0,0,82,86.49a8.24,8.24,0,0,0-1.73,2.76,9.67,9.67,0,0,0-.62,3.53v.58A10,10,0,0,0,80.23,97,8.23,8.23,0,0,0,82,99.74a7.38,7.38,0,0,0,2.57,1.75,8.79,8.79,0,0,0,6.38,0,7.42,7.42,0,0,0,2.57-1.75A8.27,8.27,0,0,0,95.21,97m60.14,0a9.8,9.8,0,0,0,.62-3.58v-.58a9.67,9.67,0,0,0-.62-3.53,8.46,8.46,0,0,0-1.7-2.76,7.75,7.75,0,0,0-2.54-1.8A7.56,7.56,0,0,0,148,84a7.93,7.93,0,0,0-3.14.62,7.45,7.45,0,0,0-2.54,1.78,8.19,8.19,0,0,0-1.68,2.74,9.82,9.82,0,0,0-.6,3.5v.77a10.11,10.11,0,0,0,.6,3.6,7.92,7.92,0,0,0,1.68,2.71,7.36,7.36,0,0,0,2.52,1.73,8.14,8.14,0,0,0,3.17.6,7.75,7.75,0,0,0,3.12-.62,7.5,7.5,0,0,0,2.52-1.78,8.45,8.45,0,0,0,1.7-2.76m4.37,13.9a3.69,3.69,0,0,1-1,2.69,3.56,3.56,0,0,1-2.66,1.06h-15.5v-3.46h14.16q1.3,0,1.3-1.44v-8.35h-.58a7.69,7.69,0,0,1-3.14,3.24,9,9,0,0,1-4.34,1.08,12.41,12.41,0,0,1-4.51-.82,11.11,11.11,0,0,1-3.72-2.35,10.92,10.92,0,0,1-2.54-3.82,13.61,13.61,0,0,1-.94-5.21v-.77a13.18,13.18,0,0,1,1-5.16,11.67,11.67,0,0,1,2.54-3.84,10.71,10.71,0,0,1,3.7-2.38,12.15,12.15,0,0,1,4.42-.82,8.88,8.88,0,0,1,4.54,1.13,7.79,7.79,0,0,1,3,3.29H156V81.16h3.74Zm-16.38-65.4H139.9V31.49l-22.4,22.4-2.43-2.43L137.49,29h-14V25.59l19.89,0ZM119.55,80.49a8.66,8.66,0,0,1,6.58,2.57q2.45,2.57,2.45,7.7V105h-3.74V91.53q0-3.74-1.68-5.62A5.82,5.82,0,0,0,118.59,84a6.6,6.6,0,0,0-5.35,2.33,9.39,9.39,0,0,0-1.94,6.21V105h-3.74V81.16h3.74v4h.58a7.81,7.81,0,0,1,7.68-4.7M99.68,93.35a13.17,13.17,0,0,1-1,5.26,11.59,11.59,0,0,1-2.62,3.84,11,11,0,0,1-3.82,2.38,13.08,13.08,0,0,1-9.1,0,11.08,11.08,0,0,1-3.79-2.38,11.55,11.55,0,0,1-2.61-3.84,13.14,13.14,0,0,1-1-5.26v-.58a13,13,0,0,1,1-5.21,11.66,11.66,0,0,1,2.64-3.86,11.17,11.17,0,0,1,3.82-2.4,12.88,12.88,0,0,1,9,0,11.17,11.17,0,0,1,3.82,2.4,11.69,11.69,0,0,1,2.64,3.86,13,13,0,0,1,1,5.21Zm-.53-49.14H79.95a8.44,8.44,0,0,0,2.21,5.71,7.59,7.59,0,0,0,5.76,2.16,10,10,0,0,0,2.93-.38A6.86,6.86,0,0,0,93,50.65a5.81,5.81,0,0,0,1.44-1.56,9,9,0,0,0,.89-1.9l3.55,1a10.52,10.52,0,0,1-3.72,5.4,11.71,11.71,0,0,1-7.32,2.09,12.08,12.08,0,0,1-4.68-.89,10.51,10.51,0,0,1-3.67-2.52,11.7,11.7,0,0,1-2.4-3.89,13.85,13.85,0,0,1-.86-5V42.2a12.11,12.11,0,0,1,.89-4.66,11,11,0,0,1,2.47-3.72,11.58,11.58,0,0,1,3.72-2.45,11.94,11.94,0,0,1,4.63-.89A11.12,11.12,0,0,1,93,31.57a11.31,11.31,0,0,1,3.5,2.66,11,11,0,0,1,2.66,6.91ZM69.34,89.71l-3.93.58q0-3.31-1.59-4.78A5.51,5.51,0,0,0,59.93,84a5.38,5.38,0,0,0-2.57.58,5.2,5.2,0,0,0-1.8,1.58,6.86,6.86,0,0,0-1.05,2.35,11.79,11.79,0,0,0-.34,2.88v10.08h6V105H45v-3.46h5.47V84.62h-4.9V81.16h8.64v3.17h.58a6.16,6.16,0,0,1,2.59-2.9,7.76,7.76,0,0,1,3.84-.94A7.6,7.6,0,0,1,67,82.84q2.21,2.35,2.35,6.86M67.9,55H64.16V41.53q0-3.74-1.68-5.62A5.82,5.82,0,0,0,57.92,34a6.6,6.6,0,0,0-5.35,2.33,9.39,9.39,0,0,0-1.94,6.22V55H46.88V21.37h3.74V35.48h.58a9,9,0,0,1,3.1-3.65,8.51,8.51,0,0,1,4.87-1.34,8.28,8.28,0,0,1,6.31,2.57q2.42,2.57,2.42,7.7Zm-27,26.19L37.13,105H30.22L27.34,82.89h-.58L23.88,105H17L13.23,81.16h3.84l3.17,22.08h.58l2.78-22.08h6.91l2.78,22.08h.58L37,81.16Zm-4.7-46.54H27V50.07q0,1.44,1.29,1.44H35V55H26.91a3.56,3.56,0,0,1-2.66-1.06,3.68,3.68,0,0,1-1-2.69V34.62H15.72V31.16h7.49V21.37H27v9.79h9.22ZM202.09,0H0V185.09H202.09Z"/></g></g></svg>